<?xml version="1.0" encoding="UTF-8" standalone="no"?><!DOCTYPE svg PUBLIC "-//W3C//DTD SVG 1.1//EN" "http://www.w3.org/Graphics/SVG/1.1/DTD/svg11.dtd"><svg width="100%" height="100%" viewBox="0 0 221 221" version="1.1" xmlns="http://www.w3.org/2000/svg" xmlns:xlink="http://www.w3.org/1999/xlink" xml:space="preserve" style="fill-rule:evenodd;clip-rule:evenodd;stroke-linejoin:round;stroke-miterlimit:1.41421;"><g id="Calque-1"><path d="M162.818,169.762c-7.138,0 -12.9,-5.761 -12.9,-12.9c0,-7.138 5.762,-12.899 12.9,-12.899c7.138,0 12.9,5.761 12.9,12.899c0,7.139 -5.762,12.9 -12.9,12.9m12.9,-77.399l16.856,21.5l-38.356,0l0,-21.5l21.5,0Zm-116.099,77.399c-7.138,0 -12.9,-5.761 -12.9,-12.9c0,-7.138 5.762,-12.899 12.9,-12.899c7.138,0 12.9,5.761 12.9,12.899c0,7.139 -5.762,12.9 -12.9,12.9m120.398,-90.298l-25.799,0l0,-34.4l-120.398,0c-9.461,0 -17.2,7.74 -17.2,17.2l0,94.598l17.2,0c0,14.276 11.523,25.8 25.799,25.8c14.276,0 25.8,-11.524 25.8,-25.8l51.599,0c0,14.276 11.524,25.8 25.8,25.8c14.276,0 25.799,-11.524 25.799,-25.8l17.2,0l0,-42.999l-25.8,-34.399Z" style="fill:#4975ba;fill-rule:nonzero;"/></g></svg>