<?xml version="1.0" encoding="UTF-8" standalone="no"?><!DOCTYPE svg PUBLIC "-//W3C//DTD SVG 1.1//EN" "http://www.w3.org/Graphics/SVG/1.1/DTD/svg11.dtd"><svg width="100%" height="100%" viewBox="0 0 1214 183" version="1.1" xmlns="http://www.w3.org/2000/svg" xmlns:xlink="http://www.w3.org/1999/xlink" xml:space="preserve" style="fill-rule:evenodd;clip-rule:evenodd;stroke-linejoin:round;stroke-miterlimit:1.41421;"><g id="Calque-1"><path d="M174.888,151.243c-7.139,0 -12.901,-5.761 -12.901,-12.899c0,-7.138 5.762,-12.9 12.901,-12.9c7.137,0 12.899,5.762 12.899,12.9c0,7.138 -5.762,12.899 -12.899,12.899m12.899,-77.398l16.856,21.5l-38.356,0l0,-21.5l21.5,0Zm-116.098,77.398c-7.138,0 -12.9,-5.761 -12.9,-12.899c0,-7.138 5.762,-12.9 12.9,-12.9c7.138,0 12.9,5.762 12.9,12.9c0,7.138 -5.762,12.899 -12.9,12.899m120.398,-90.298l-25.8,0l0,-34.4l-120.398,0c-9.46,0 -17.2,7.74 -17.2,17.2l0,94.599l17.2,0c0,14.276 11.524,25.799 25.8,25.799c14.276,0 25.799,-11.523 25.799,-25.799l51.6,0c0,14.276 11.523,25.799 25.8,25.799c14.275,0 25.799,-11.523 25.799,-25.799l17.199,0l0,-42.999l-25.799,-34.4Z" style="fill:#4975ba;fill-rule:nonzero;"/><path d="M63.992,46.209l15.337,0l15.163,22.308l15.075,-22.308l15.337,0l0,58.123l-18.561,0l0,-20.914l-11.851,17.429l-11.939,-17.429l0,20.914l-18.561,0l0,-58.123Zm10.98,51.152l0,-39.998l19.52,28.408l19.432,-28.408l0,39.998l2.266,0l0,-44.181l-2.266,0l-19.432,28.67l-19.52,-28.67l-2.266,0l0,44.181l2.266,0Z" style="fill:#fff;fill-rule:nonzero;"/><g><path d="M239.096,42.18l27.853,0l27.537,40.513l27.379,-40.513l27.853,0l0,105.557l-33.709,0l0,-37.982l-21.523,31.652l-21.681,-31.652l0,37.982l-33.709,0l0,-105.557Zm19.941,92.896l0,-72.64l35.449,51.592l35.291,-51.592l0,72.64l4.115,0l0,-80.236l-4.115,0l-35.291,52.067l-35.449,-52.067l-4.115,0l0,80.236l4.115,0Z" style="fill:#4975ba;fill-rule:nonzero;"/><path d="M358.422,95.037c0,-7.596 1.451,-14.77 4.352,-21.523c2.901,-6.752 6.858,-12.634 11.869,-17.645c5.012,-5.012 10.894,-8.968 17.646,-11.869c6.752,-2.902 13.927,-4.353 21.523,-4.353c7.596,0 14.771,1.451 21.523,4.353c6.752,2.901 12.634,6.857 17.645,11.869c5.012,5.011 8.968,10.893 11.87,17.645c2.901,6.753 4.352,13.927 4.352,21.523c0,7.597 -1.451,14.771 -4.352,21.523c-2.902,6.753 -6.858,12.635 -11.87,17.646c-5.011,5.011 -10.893,8.968 -17.645,11.869c-6.752,2.902 -13.927,4.352 -21.523,4.352c-7.596,0 -14.771,-1.45 -21.523,-4.352c-6.752,-2.901 -12.634,-6.858 -17.646,-11.869c-5.011,-5.011 -8.968,-10.893 -11.869,-17.646c-2.901,-6.752 -4.352,-13.926 -4.352,-21.523Zm14.876,0c0,5.592 1.055,10.841 3.165,15.747c2.11,4.906 5.012,9.205 8.704,12.898c3.693,3.693 7.992,6.594 12.898,8.704c4.906,2.11 10.155,3.165 15.747,3.165c5.592,0 10.84,-1.055 15.746,-3.165c4.906,-2.11 9.206,-5.011 12.898,-8.704c3.693,-3.693 6.594,-7.992 8.705,-12.898c2.11,-4.906 3.165,-10.155 3.165,-15.747c0,-5.591 -1.055,-10.84 -3.165,-15.746c-2.111,-4.906 -5.012,-9.205 -8.705,-12.898c-3.692,-3.693 -7.992,-6.594 -12.898,-8.704c-4.906,-2.11 -10.154,-3.165 -15.746,-3.165c-5.592,0 -10.841,1.055 -15.747,3.165c-4.906,2.11 -9.205,5.011 -12.898,8.704c-3.692,3.693 -6.594,7.992 -8.704,12.898c-2.11,4.906 -3.165,10.155 -3.165,15.746Zm18.358,0c0,3.06 0.58,5.935 1.741,8.625c1.16,2.691 2.743,5.038 4.747,7.043c2.005,2.004 4.353,3.587 7.043,4.748c2.69,1.16 5.565,1.74 8.625,1.74c3.06,0 5.935,-0.58 8.625,-1.74c2.69,-1.161 5.038,-2.744 7.042,-4.748c2.005,-2.005 3.587,-4.352 4.748,-7.043c1.161,-2.69 1.741,-5.565 1.741,-8.625c0,-3.059 -0.58,-5.934 -1.741,-8.625c-1.161,-2.69 -2.743,-5.037 -4.748,-7.042c-2.004,-2.005 -4.352,-3.587 -7.042,-4.748c-2.69,-1.16 -5.565,-1.741 -8.625,-1.741c-3.06,0 -5.935,0.581 -8.625,1.741c-2.69,1.161 -5.038,2.743 -7.043,4.748c-2.004,2.005 -3.587,4.352 -4.747,7.042c-1.161,2.691 -1.741,5.566 -1.741,8.625Zm22.156,36.4c-5.064,0 -9.786,-0.95 -14.164,-2.849c-4.379,-1.899 -8.229,-4.51 -11.553,-7.834c-3.323,-3.323 -5.934,-7.174 -7.834,-11.553c-1.899,-4.378 -2.848,-9.099 -2.848,-14.164c0,-5.064 0.949,-9.785 2.848,-14.164c1.9,-4.378 4.511,-8.229 7.834,-11.552c3.324,-3.324 7.174,-5.935 11.553,-7.834c4.378,-1.899 9.1,-2.849 14.164,-2.849c5.064,0 9.785,0.95 14.164,2.849c4.378,1.899 8.229,4.51 11.553,7.834c3.323,3.323 5.934,7.174 7.833,11.552c1.899,4.379 2.849,9.1 2.849,14.164c0,5.065 -0.95,9.786 -2.849,14.164c-1.899,4.379 -4.51,8.23 -7.833,11.553c-3.324,3.324 -7.175,5.935 -11.553,7.834c-4.379,1.899 -9.1,2.849 -14.164,2.849Z" style="fill:#4975ba;fill-rule:nonzero;"/><path d="M498.163,42.18l17.883,45.894l18.041,-45.894l36.874,0l-41.147,105.557l-27.378,0l-41.147,-105.557l36.874,0Zm19.624,92.896l31.335,-80.236l-4.432,0l-28.644,72.957l-28.486,-72.957l-4.432,0l31.335,80.236l3.324,0Z" style="fill:#4975ba;fill-rule:nonzero;"/><path d="M573.335,42.18l35.766,0l0,105.557l-35.766,0l0,-105.557Zm19.94,92.896l0,-80.236l-4.114,0l0,80.236l4.114,0Z" style="fill:#4975ba;fill-rule:nonzero;"/><path d="M620.179,42.18l27.695,0l29.119,40.672l0,-40.672l33.076,0l0,105.557l-27.853,0l-28.961,-40.514l0,40.514l-33.076,0l0,-105.557Zm18.832,92.896l0,-73.114l52.225,73.114l4.115,0l0,-80.236l-4.115,0l0,73.115l-52.225,-73.115l-4.114,0l0,80.236l4.114,0Z" style="fill:#4975ba;fill-rule:nonzero;"/><path d="M788.406,78.104c-1.899,-1.688 -4.273,-2.981 -7.122,-3.877c-2.848,-0.897 -5.644,-1.346 -8.387,-1.346c-3.06,0 -5.856,0.554 -8.388,1.662c-2.532,1.108 -4.721,2.638 -6.567,4.59c-1.847,1.951 -3.297,4.299 -4.353,7.042c-1.055,2.743 -1.582,5.697 -1.582,8.862c0,3.166 0.58,6.12 1.741,8.863c1.16,2.743 2.743,5.09 4.747,7.042c2.005,1.952 4.352,3.482 7.043,4.59c2.69,1.107 5.565,1.661 8.625,1.661c3.587,0 6.858,-0.765 9.812,-2.294c2.954,-1.53 5.486,-3.614 7.596,-6.251l-9.495,0l0,-22.156l40.672,0l0,35.133c-2.427,4.325 -5.328,8.255 -8.704,11.79c-3.377,3.534 -7.148,6.567 -11.316,9.099c-4.167,2.533 -8.678,4.484 -13.531,5.856c-4.853,1.372 -9.864,2.057 -15.034,2.057c-7.596,0 -14.771,-1.424 -21.523,-4.273c-6.752,-2.848 -12.634,-6.752 -17.646,-11.711c-5.011,-4.958 -8.968,-10.814 -11.869,-17.566c-2.901,-6.752 -4.352,-14.032 -4.352,-21.84c0,-7.596 1.372,-14.77 4.115,-21.523c2.743,-6.752 6.515,-12.634 11.315,-17.645c4.8,-5.012 10.498,-8.968 17.092,-11.869c6.594,-2.902 13.689,-4.353 21.285,-4.353c5.909,0 11.026,0.581 15.351,1.741c4.326,1.161 7.966,2.48 10.92,3.957c3.482,1.688 6.383,3.534 8.704,5.539l-19.149,27.22Zm1.583,-20.415c-1.372,-0.633 -2.902,-1.161 -4.59,-1.583c-1.477,-0.422 -3.218,-0.791 -5.222,-1.108c-2.005,-0.316 -4.221,-0.474 -6.647,-0.474c-5.592,0 -10.814,1.002 -15.668,3.007c-4.853,2.004 -9.073,4.774 -12.66,8.308c-3.587,3.534 -6.41,7.781 -8.467,12.74c-2.057,4.958 -3.086,10.445 -3.086,16.458c0,6.014 1.055,11.5 3.165,16.459c2.11,4.959 5.012,9.205 8.704,12.74c3.693,3.534 7.992,6.304 12.898,8.308c4.906,2.005 10.155,3.007 15.747,3.007c7.28,0 13.874,-1.714 19.782,-5.143c5.908,-3.429 10.709,-7.992 14.401,-13.689l0,-20.732l-16.775,0l0,3.798l12.661,0l0,15.826c-3.271,4.853 -7.518,8.704 -12.74,11.553c-5.222,2.848 -10.999,4.273 -17.329,4.273c-5.064,0 -9.786,-0.871 -14.164,-2.612c-4.379,-1.741 -8.229,-4.22 -11.553,-7.438c-3.323,-3.218 -5.935,-7.069 -7.834,-11.553c-1.899,-4.484 -2.848,-9.416 -2.848,-14.797c0,-5.38 0.923,-10.313 2.769,-14.797c1.847,-4.484 4.379,-8.334 7.597,-11.552c3.217,-3.218 6.989,-5.698 11.315,-7.438c4.326,-1.741 9.021,-2.612 14.085,-2.612c1.899,0 3.692,0.159 5.381,0.475c1.688,0.317 3.165,0.633 4.431,0.95c1.477,0.422 2.848,0.844 4.114,1.266l2.533,-3.64Z" style="fill:#4975ba;fill-rule:nonzero;"/><path d="M831.452,42.18l27.853,0l27.537,40.513l27.378,-40.513l27.853,0l0,105.557l-33.708,0l0,-37.982l-21.523,31.652l-21.681,-31.652l0,37.982l-33.709,0l0,-105.557Zm19.94,92.896l0,-72.64l35.45,51.592l35.291,-51.592l0,72.64l4.115,0l0,-80.236l-4.115,0l-35.291,52.067l-35.45,-52.067l-4.114,0l0,80.236l4.114,0Z" style="fill:#4975ba;fill-rule:nonzero;"/><path d="M984.486,42.18l25.321,0l40.039,105.557l-33.234,0l-3.481,-9.495l-31.968,0l-3.482,9.495l-33.234,0l40.039,-105.557Zm19.782,72.798l-7.121,-18.516l-7.122,18.516l14.243,0Zm-36.24,20.098l3.006,-7.912l52.225,0l3.007,7.912l4.431,0l-30.543,-80.236l-6.014,0l-30.544,80.236l4.432,0Zm29.119,-76.438l24.688,64.727l-49.376,0l24.688,-64.727Z" style="fill:#4975ba;fill-rule:nonzero;"/><path d="M1054.28,69.875l-19.466,0l0,-27.695l73.748,0l0,27.695l-19.466,0l0,77.862l-34.816,0l0,-77.862Zm19.465,65.201l0,-76.438l22.631,0l0,-3.798l-49.376,0l0,3.798l22.631,0l0,76.438l4.114,0Z" style="fill:#4975ba;fill-rule:nonzero;"/><path d="M1114.1,42.18l62.195,0l0,27.695l-28.487,0l0,11.711l28.012,0l0,26.27l-28.012,0l0,12.186l29.594,0l0,27.695l-63.302,0l0,-105.557Zm51.591,92.896l0,-3.798l-31.651,0l0,-34.658l30.069,0l0,-3.798l-30.069,0l0,-34.184l31.651,0l0,-3.798l-35.766,0l0,80.236l35.766,0Z" style="fill:#4975ba;fill-rule:nonzero;"/></g></g></svg>