<?xml version="1.0" encoding="UTF-8" standalone="no"?><!DOCTYPE svg PUBLIC "-//W3C//DTD SVG 1.1//EN" "http://www.w3.org/Graphics/SVG/1.1/DTD/svg11.dtd"><svg width="100%" height="100%" viewBox="0 0 217 217" version="1.1" xmlns="http://www.w3.org/2000/svg" xmlns:xlink="http://www.w3.org/1999/xlink" xml:space="preserve" style="fill-rule:evenodd;clip-rule:evenodd;stroke-linejoin:round;stroke-miterlimit:1.41421;"><g id="Calque-1"><path d="M161.441,166.542c-7.138,0 -12.901,-5.762 -12.901,-12.9c0,-7.138 5.763,-12.899 12.901,-12.899c7.137,0 12.899,5.761 12.899,12.899c0,7.138 -5.762,12.9 -12.899,12.9m12.899,-77.399l16.856,21.5l-38.356,0l0,-21.5l21.5,0Zm-116.098,77.399c-7.138,0 -12.9,-5.762 -12.9,-12.9c0,-7.138 5.762,-12.899 12.9,-12.899c7.138,0 12.9,5.761 12.9,12.899c0,7.138 -5.762,12.9 -12.9,12.9m120.398,-90.299l-25.8,0l0,-34.4l-120.398,0c-9.46,0 -17.2,7.741 -17.2,17.2l0,94.599l17.2,0c0,14.276 11.524,25.8 25.8,25.8c14.276,0 25.799,-11.524 25.799,-25.8l51.6,0c0,14.276 11.523,25.8 25.8,25.8c14.275,0 25.799,-11.524 25.799,-25.8l17.199,0l0,-42.999l-25.799,-34.4Z" style="fill:#4975ba;fill-rule:nonzero;"/><path d="M49.877,63.161l15.337,0l15.163,22.308l15.075,-22.308l15.337,0l0,58.123l-18.561,0l0,-20.914l-11.851,17.429l-11.939,-17.429l0,20.914l-18.561,0l0,-58.123Zm10.98,51.152l0,-39.998l19.52,28.408l19.432,-28.408l0,39.998l2.266,0l0,-44.181l-2.266,0l-19.432,28.67l-19.52,-28.67l-2.266,0l0,44.181l2.266,0Z" style="fill:#fff;fill-rule:nonzero;"/></g></svg>