<svg viewBox="0 0 50 50" fill='#5a5a5a' version="1.1" xmlns:xlink="http://www.w3.org/1999/xlink" xmlns="http://www.w3.org/2000/svg">
  <path d="M 25.533203 1.0019531 C 25.206889 1.0129751 24.923379 1.0928439 24.652344 1.1816406 C 23.92958 1.4184319 23.251146 1.7948624 22.878906 1.953125 C 22.501381 2.1140076 22.163845 2.4103562 21.972656 2.7460938 C 21.781467 3.0818313 21.722008 3.4174585 21.703125 3.7050781 C 21.665355 4.2803174 21.753536 4.7425286 21.753906 5.0703125 C 21.754418 5.6316568 21.74901 6.0318408 21.6875 6.2675781 C 21.62601 6.5033155 21.569888 6.6266022 21.230469 6.875 C 20.980984 7.0576963 20.838067 7.1102808 20.59375 7.1738281 C 20.349433 7.2373751 19.987438 7.2913644 19.507812 7.4277344 C 19.028817 7.5638481 18.512267 7.8168633 17.931641 8.234375 C 17.641327 8.4431308 17.353631 8.6763515 17.117188 9.0488281 C 16.970001 9.2806925 16.908496 9.6377458 16.921875 10.003906 C 16.844425 10.018796 16.910395 10.021484 16.417969 10.021484 C 16.011325 10.021484 15.473828 9.971733 15.154297 9.8691406 C 14.996912 9.8186054 14.906324 9.758078 14.892578 9.7460938 C 14.859817 9.457401 14.771572 9.1303754 14.554688 8.8671875 C 14.317583 8.5794641 13.999654 8.4003438 13.683594 8.2949219 C 13.051473 8.0840781 12.357147 8.0763689 11.367188 8.1425781 C 11.003253 8.1668031 10.452698 8.5630534 10.332031 8.9472656 C 10.211364 9.3314778 10.282661 9.5583653 10.332031 9.7519531 C 10.430771 10.139129 10.590238 10.443089 10.759766 10.769531 C 10.929293 11.095974 11.11333 11.420106 11.251953 11.683594 C 11.390577 11.947082 11.474266 12.227068 11.447266 12.082031 C 11.534876 12.554921 11.626287 12.917338 11.705078 13.271484 C 11.412954 13.162432 11.13838 13.029297 10.6875 13.029297 C 9.9547312 13.029297 9.5148991 13.349391 9.1582031 13.580078 C 9.0114914 13.356468 8.9091873 13.178369 8.6933594 12.917969 C 8.5057903 12.691664 8.2918627 12.460926 7.9765625 12.269531 C 7.6612623 12.078137 7.1793548 11.937052 6.7050781 12.056641 C 5.926628 12.253339 5.6055052 12.791274 5.3828125 13.060547 C 5.2845337 13.179382 5.2348813 13.223687 5.2070312 13.251953 C 5.0858888 13.16368 4.2189546 12.842032 1.890625 14.013672 C 0.98562771 14.46938 0.73863895 15.490985 1.2070312 16.376953 A 1.0001 1.0001 0 0 0 1.2089844 16.376953 C 1.4416301 16.816519 1.7517276 16.936404 1.9882812 17.035156 C 1.8597655 17.249865 1.7366337 17.511568 1.7558594 17.785156 C 1.7788964 18.112983 1.9109452 18.372233 2.0585938 18.580078 C 1.8444444 18.278205 1.9966372 18.489078 2.0664062 18.683594 C 2.1361782 18.878114 2.2373308 19.158929 2.484375 19.453125 C 2.7314192 19.747321 3.1977111 20.036717 3.703125 20.056641 C 4.2085389 20.076561 4.6740543 19.895967 5.1503906 19.601562 C 5.2122216 19.563333 5.2010587 19.5609 5.3320312 19.59375 C 5.4630043 19.62658 5.6901302 19.738607 5.9199219 19.902344 C 6.1497136 20.066081 6.3809939 20.26997 6.5898438 20.455078 C 6.6942686 20.547628 6.7922977 20.635346 6.9023438 20.722656 C 7.0123897 20.809966 7.046213 20.927552 7.4824219 21.023438 C 8.0263529 21.143179 8.3052624 21.066733 8.5410156 21.064453 C 8.6079846 21.248268 8.5973686 21.457303 8.7285156 21.601562 C 9.0165841 21.918433 9.3529282 22.024586 9.5390625 22.078125 C 9.6440618 22.108327 9.6208685 22.097696 9.6503906 22.105469 C 9.7678506 22.305929 9.9086276 22.400151 10.058594 22.515625 C 9.9769327 22.693305 9.7843981 22.810657 9.7714844 23.007812 C 9.7355824 23.555938 9.9647976 23.979504 10.181641 24.287109 C 10.615326 24.90232 11.133776 25.319865 11.373047 25.648438 A 1.0001 1.0001 0 0 0 11.375 25.648438 C 11.639433 26.010807 11.886858 26.087035 12.080078 26.169922 C 12.273299 26.252812 12.44371 26.307123 12.59375 26.361328 C 12.817206 26.442055 12.965859 26.544134 13.001953 26.556641 C 13.004057 26.563042 13.034211 26.62529 13.005859 26.894531 C 12.985959 27.083418 12.989082 27.182933 12.982422 27.423828 C 12.975722 27.664723 12.968061 27.983082 12.957031 28.359375 C 12.934981 29.111962 12.900081 30.097382 12.837891 31.150391 C 12.713514 33.256407 12.4403 35.686192 12.054688 36.796875 C 11.806489 37.511721 11.537764 37.962514 11.314453 38.423828 C 11.202798 38.654485 11.080909 38.893843 11.048828 39.269531 C 11.016748 39.64522 11.199896 40.15313 11.474609 40.429688 C 12.206707 41.165897 12.957881 41.535466 13.582031 41.712891 C 14.206182 41.890315 14.641996 41.924929 14.943359 42.039062 C 14.869809 42.011153 15.349332 42.344267 15.957031 42.675781 C 16.564731 43.007295 17.433408 43.314533 18.492188 43.228516 A 1.0001 1.0001 0 0 0 18.494141 43.228516 C 18.968439 43.189776 19.080457 43.260379 19.537109 43.193359 C 19.765435 43.159849 20.029019 43.055315 20.224609 42.933594 C 20.341538 42.860824 20.456424 42.762572 20.568359 42.673828 C 20.622409 42.687448 20.653009 42.690229 20.753906 42.730469 C 21.081015 42.860939 21.569551 43.129836 22.064453 43.431641 C 22.559355 43.733445 23.068287 44.067555 23.519531 44.345703 C 23.745153 44.484777 23.955644 44.609038 24.158203 44.714844 C 24.360762 44.82065 24.521294 44.917717 24.849609 44.972656 C 25.190631 45.029726 25.440594 45.00403 25.759766 44.96875 C 26.079622 44.93339 26.431459 44.87075 26.785156 44.783203 C 27.138853 44.695663 27.491314 44.586876 27.826172 44.427734 C 28.161029 44.268593 28.51944 44.100105 28.787109 43.59375 A 1.0001 1.0001 0 0 0 28.789062 43.591797 C 29.125162 42.954855 29.003344 42.393586 28.945312 42.011719 C 28.887283 41.629852 28.873979 41.367069 28.880859 41.335938 C 28.934319 41.093736 28.975769 41.061835 29.357422 40.855469 C 29.739079 40.649102 30.397642 40.414152 31.134766 39.990234 C 31.123576 39.996634 31.466812 39.953794 32.019531 40.121094 C 32.57225 40.288388 33.218471 40.578757 33.914062 40.728516 C 34.219377 40.794236 34.801004 41.006761 35.388672 41.236328 C 35.976339 41.465896 36.571617 41.710709 37.140625 41.847656 C 38.177443 42.097042 39.008714 41.544081 39.623047 41.025391 C 40.237379 40.5067 40.73922 39.898517 41.082031 39.515625 C 40.993221 39.614835 41.345517 39.33246 41.689453 39.134766 C 42.032921 38.937341 42.368201 38.781016 42.71875 38.490234 C 43.080788 38.190617 43.223126 37.943084 43.451172 37.580078 C 43.679218 37.217072 43.953125 36.942537 43.953125 36.214844 C 43.953125 35.897046 43.837753 35.540627 43.638672 35.289062 C 43.43959 35.0375 43.198339 34.894119 42.988281 34.802734 C 42.568167 34.619964 42.212634 34.590923 41.902344 34.550781 C 41.669811 34.520701 41.531461 34.492717 41.40625 34.466797 C 41.301316 33.862184 41.165813 32.88257 41.087891 31.880859 C 41.044401 31.321746 41.018261 30.782241 41.019531 30.367188 C 41.020469 30.067856 41.071965 29.796254 41.072266 29.734375 C 41.087256 29.718115 41.174981 29.627553 41.447266 29.373047 C 41.593516 29.236346 41.82396 29.042817 41.941406 28.617188 C 42.058853 28.191557 41.885956 27.665686 41.65625 27.376953 C 41.410469 27.068067 41.337474 26.869448 41.257812 26.615234 C 41.178153 26.36102 41.123186 25.986389 40.818359 25.550781 C 40.564776 25.188812 40.007696 24.858917 39.517578 24.902344 C 39.189647 24.931404 39.046638 25.07846 38.867188 25.201172 C 38.928378 25.073688 38.926219 25.022435 39.007812 24.886719 C 39.250296 24.483395 39.548663 24.071854 39.769531 23.773438 C 39.895031 23.603991 40.273594 23.117812 40.648438 22.65625 C 41.02328 22.194688 41.482214 21.685796 41.5 21.669922 A 1.0001 1.0001 0 0 0 41.501953 21.667969 C 41.392893 21.765609 41.836961 21.464576 42.205078 21.232422 C 42.389137 21.116345 42.576657 20.993609 42.763672 20.835938 C 42.950687 20.678265 43.24572 20.558723 43.322266 19.912109 A 1.0001 1.0001 0 0 0 43.324219 19.910156 C 43.374479 19.479006 43.330253 19.13093 43.314453 18.722656 C 43.306553 18.518519 43.300461 18.32178 43.300781 18.177734 C 43.300938 18.105712 43.31037 18.033725 43.314453 18 C 43.75926 16.425487 44.577815 15.400664 45.199219 14.619141 C 45.513693 14.223634 45.845239 14.004182 45.976562 13.277344 C 46.042223 12.913925 45.856512 12.332628 45.546875 12.068359 C 45.237238 11.804091 44.954122 11.735674 44.658203 11.671875 C 43.898833 11.508529 43.620962 11.597475 42.236328 10.984375 C 41.461146 10.641154 40.815276 10.703822 40.636719 10.673828 C 40.547439 10.658828 40.566259 10.664432 40.527344 10.632812 C 40.488434 10.601162 40.382003 10.492126 40.236328 10.199219 C 40.032565 9.790022 39.650052 9.4784509 39.292969 9.3339844 C 38.935886 9.1895178 38.610098 9.1626191 38.320312 9.1542969 C 37.741593 9.1376769 37.243907 9.1898589 36.988281 9.1542969 L 36.986328 9.1542969 C 36.510724 9.0871605 36.446695 9.0475794 36.292969 8.9453125 C 36.138846 8.8427815 35.846414 8.5722448 35.298828 8.1933594 C 34.884293 7.9065337 34.732465 7.7229609 34.691406 7.6640625 C 34.715776 7.6306582 34.772004 7.5901206 34.765625 7.21875 C 34.761639 6.9867088 34.665104 6.6774256 34.505859 6.4648438 C 34.346614 6.2522619 34.165008 6.1224812 33.982422 6.0175781 L 33.982422 6.0195312 C 33.616198 5.8084665 33.061572 5.9142698 32.847656 6.0488281 C 32.63374 6.1833864 32.560696 6.2896161 32.490234 6.375 C 32.477924 6.389913 32.476264 6.3940161 32.464844 6.4082031 C 32.357944 6.0196682 32.175415 5.5983442 31.771484 5.25 C 31.408197 4.9361117 30.985079 4.9157536 30.773438 4.9179688 C 30.561795 4.9201888 30.460895 4.9304694 30.425781 4.9277344 C 30.355551 4.9222544 30.475941 5.1006952 30.269531 4.6855469 C 30.115264 4.3746884 29.67327 4.0327735 29.359375 3.9648438 C 29.32407 3.8956423 29.2869 3.8388525 29.208984 3.5839844 C 29.144563 3.3731282 29.051267 3.1135527 28.751953 2.8789062 C 28.452639 2.6442599 28.003017 2.6129581 27.783203 2.6582031 C 27.583536 2.6993011 27.661628 2.697501 27.601562 2.7226562 C 27.532158 2.6408041 27.392847 2.4821993 27.179688 1.9824219 C 26.954823 1.4539064 26.352443 1.0719516 25.875 1.015625 C 25.755639 1.0015433 25.641974 0.99827913 25.533203 1.0019531 z M 25.507812 3.03125 C 25.762632 3.572154 26.004628 4.0401752 26.339844 4.3398438 C 26.675695 4.6400802 27.145716 4.6938686 27.529297 4.6894531 C 27.610437 4.8788981 27.675189 5.1084568 27.785156 5.2636719 C 27.994684 5.5594132 28.36652 5.8173199 28.675781 5.8886719 C 28.761421 5.9084309 28.699149 5.8878913 28.755859 5.8964844 C 29.198944 6.492267 29.803725 6.8855302 30.269531 6.921875 C 30.405346 6.932472 30.436247 6.9232119 30.525391 6.9199219 C 30.533691 6.9484129 30.590987 6.9597439 30.591797 7.0878906 C 30.592578 7.2114082 30.558438 7.4041953 30.648438 7.75 C 30.738437 8.0958047 31.125399 8.5511826 31.513672 8.6972656 C 31.973289 8.8701425 32.508087 8.8483258 32.896484 8.6816406 C 32.924684 8.6695396 32.928358 8.6496427 32.955078 8.6367188 C 32.968028 8.6596728 32.956573 8.6827631 32.970703 8.7050781 C 33.225191 9.1085097 33.598138 9.449018 34.160156 9.8378906 C 34.60257 10.144005 34.80867 10.358656 35.185547 10.609375 C 35.562424 10.860094 36.066015 11.044223 36.708984 11.134766 C 37.364697 11.226896 37.920491 11.144467 38.263672 11.154297 C 38.418416 11.158697 38.494916 11.178124 38.515625 11.183594 C 38.729492 11.588598 38.960853 11.937605 39.265625 12.185547 C 39.598933 12.456704 39.99659 12.594731 40.304688 12.646484 C 40.920879 12.749991 41.145916 12.687724 41.427734 12.8125 C 42.634077 13.346656 43.10111 13.360128 43.587891 13.439453 C 42.965022 14.222117 41.910191 15.538513 41.365234 17.525391 C 41.278994 17.84124 41.301211 17.973561 41.300781 18.173828 C 41.300345 18.374095 41.308276 18.587715 41.316406 18.798828 C 41.327656 19.090924 41.327648 19.247205 41.330078 19.408203 C 41.267448 19.452573 41.224165 19.487103 41.138672 19.541016 C 40.838462 19.730344 40.555152 19.833262 40.169922 20.177734 C 39.815708 20.493861 39.488109 20.911343 39.095703 21.394531 C 38.703297 21.877719 38.33361 22.35243 38.162109 22.583984 C 37.932977 22.893567 37.59894 23.351745 37.294922 23.857422 C 36.990904 24.363099 36.695226 24.888184 36.605469 25.552734 C 36.540479 26.037021 36.547949 26.523759 36.794922 27.076172 C 36.918408 27.352379 37.138514 27.701803 37.59375 27.882812 C 38.048986 28.063823 38.581341 27.931012 38.916016 27.714844 C 39.194505 27.535173 39.242883 27.435993 39.386719 27.283203 C 39.465659 27.524837 39.669847 27.859404 39.861328 28.183594 C 39.661623 28.347477 39.410543 28.495103 39.203125 28.988281 C 38.979239 29.521142 39.021068 29.858567 39.019531 30.359375 C 39.018031 30.860884 39.04749 31.44052 39.09375 32.035156 C 39.18626 33.224429 39.338812 34.443414 39.480469 35.15625 A 1.0001 1.0001 0 0 0 39.480469 35.158203 C 39.611499 35.814101 40.210498 36.205292 40.609375 36.337891 C 41.008252 36.470489 41.355774 36.497548 41.646484 36.535156 C 41.692294 36.541056 41.690032 36.544151 41.732422 36.550781 C 41.576223 36.777231 41.32385 37.048123 41.443359 36.949219 A 1.0001 1.0001 0 0 0 41.441406 36.951172 C 41.444506 36.948672 41.05772 37.189835 40.691406 37.400391 C 40.325093 37.610947 39.979609 37.748432 39.591797 38.181641 C 39.207608 38.610748 38.755402 39.142237 38.333984 39.498047 C 37.912567 39.853856 37.626604 39.908911 37.607422 39.904297 C 37.29143 39.828247 36.708317 39.606683 36.115234 39.375 C 35.522152 39.143317 34.920671 38.89972 34.333984 38.773438 C 33.970575 38.695197 33.308141 38.421487 32.599609 38.207031 C 31.891078 37.992576 31.021865 37.750383 30.138672 38.257812 A 1.0001 1.0001 0 0 0 30.136719 38.257812 C 29.588842 38.572896 29.007093 38.77082 28.40625 39.095703 C 27.805407 39.420587 27.12327 40.018498 26.927734 40.904297 C 26.791615 41.520165 26.91953 41.988617 26.96875 42.3125 C 26.990462 42.455371 26.991488 42.541984 26.992188 42.603516 C 26.979686 42.611032 26.982148 42.613798 26.966797 42.621094 C 26.814873 42.693294 26.566616 42.776966 26.304688 42.841797 C 26.042759 42.906627 25.762737 42.955739 25.539062 42.980469 C 25.339695 43.002511 25.206169 42.992243 25.21875 42.998047 C 25.190008 42.987707 25.141756 42.971581 25.083984 42.941406 C 24.956676 42.874906 24.776784 42.769848 24.570312 42.642578 C 24.15737 42.388039 23.638317 42.047602 23.105469 41.722656 C 22.572621 41.397711 22.033172 41.087265 21.496094 40.873047 C 21.227554 40.765938 20.95996 40.676604 20.642578 40.646484 C 20.325197 40.616364 19.88685 40.651584 19.513672 40.964844 C 19.336411 41.113507 19.237435 41.185514 19.193359 41.214844 C 19.206639 41.205144 18.920374 41.186165 18.330078 41.234375 C 17.714857 41.284355 17.305864 41.133658 16.914062 40.919922 C 16.522263 40.706186 16.281898 40.408835 15.652344 40.169922 A 1.0001 1.0001 0 0 0 15.652344 40.167969 C 15.013707 39.926102 14.515256 39.898888 14.128906 39.789062 C 13.827253 39.703313 13.51293 39.475684 13.164062 39.1875 C 13.333395 38.849794 13.652664 38.295994 13.945312 37.453125 C 14.503699 35.844808 14.706111 33.434765 14.833984 31.269531 C 14.897924 30.186915 14.934678 29.180788 14.957031 28.417969 C 14.968211 28.036559 14.975902 27.714234 14.982422 27.478516 C 14.988922 27.242798 15.002291 27.028082 14.994141 27.105469 C 15.040161 26.668274 15.073121 25.965945 14.599609 25.335938 C 14.165686 24.756234 13.632662 24.610951 13.271484 24.480469 C 13.09117 24.415329 12.941811 24.363098 12.869141 24.332031 C 12.869141 24.332031 12.867188 24.332031 12.867188 24.332031 C 12.448747 23.803924 11.990275 23.369746 11.832031 23.152344 C 12.001739 23.001848 12.23292 22.719535 12.230469 22.347656 C 12.227869 21.946838 12.034091 21.716258 11.923828 21.597656 C 11.703418 21.360398 11.593827 21.32694 11.5 21.265625 C 11.312345 21.142995 11.345333 21.05661 11.408203 21.308594 C 11.304387 20.891419 10.944034 20.499922 10.652344 20.349609 C 10.392355 20.215633 10.24307 20.198233 10.154297 20.177734 C 10.026249 19.7826 9.798368 19.357478 9.53125 19.238281 C 9.1946891 19.088097 8.9426236 19.08061 8.7128906 19.070312 C 8.3296288 19.053133 8.0783052 19.054102 8.0449219 19.070312 C 8.0032456 19.034453 7.975931 19.010358 7.9179688 18.958984 C 7.7117247 18.776186 7.4251614 18.519324 7.0800781 18.273438 C 6.7349948 18.02755 6.3282302 17.782119 5.8183594 17.654297 C 5.3733061 17.542724 4.8180303 17.637747 4.3164062 17.869141 C 4.47367 17.777761 4.7035645 17.646497 4.8476562 17.267578 C 4.9992031 16.869054 4.8424762 16.375259 4.6738281 16.150391 C 4.3140684 15.670343 3.9623141 15.541904 3.640625 15.462891 C 4.3980724 15.168941 4.4048771 15.345266 5.3984375 15.277344 C 6.2351327 15.221324 6.6720208 14.640415 6.9238281 14.335938 C 7.075866 14.152097 7.0498165 14.171845 7.0878906 14.130859 C 7.1165356 14.160219 7.1216129 14.155882 7.1542969 14.195312 C 7.3699088 14.455452 7.6135555 14.871854 7.8867188 15.246094 C 8.0198425 15.428324 8.2493543 15.633415 8.5390625 15.722656 C 8.8287707 15.811896 9.1092879 15.771601 9.2949219 15.712891 C 9.6661901 15.595583 9.81361 15.45089 9.9667969 15.345703 C 10.273171 15.13533 10.454684 15.029297 10.6875 15.029297 C 10.62406 15.029297 11.006072 15.105427 11.355469 15.230469 C 11.530167 15.292989 11.710466 15.359791 11.900391 15.417969 C 12.090316 15.476149 12.252186 15.554165 12.623047 15.529297 C 12.791233 15.518317 12.986364 15.523697 13.292969 15.347656 C 13.600406 15.171175 13.842776 14.702414 13.869141 14.449219 C 13.921871 13.942828 13.826851 13.856605 13.800781 13.564453 C 13.734431 12.830408 13.493679 12.147191 13.414062 11.716797 C 13.330562 11.26826 13.18133 11.055778 13.021484 10.751953 C 12.92068 10.56035 12.818232 10.37223 12.714844 10.181641 C 12.779254 10.191731 13.011177 10.183739 13.041016 10.193359 C 13.130986 10.584354 13.27754 10.977536 13.535156 11.214844 C 13.852271 11.50696 14.203234 11.664358 14.542969 11.773438 C 15.222437 11.991594 15.899613 12.021484 16.417969 12.021484 C 17.388975 12.021484 18.022508 11.981534 18.589844 11.439453 C 18.873511 11.168414 19.034757 10.712057 19.013672 10.371094 C 19.003972 10.214978 18.941852 10.147153 18.902344 10.033203 C 18.951094 9.9828341 18.984624 9.942055 19.099609 9.859375 C 19.444483 9.6113867 20.072682 9.3464487 20.054688 9.3515625 C 20.398062 9.2539325 20.704723 9.2115777 21.097656 9.109375 C 21.490589 9.0071723 21.955594 8.822585 22.412109 8.4882812 C 23.04969 8.021679 23.460084 7.388747 23.621094 6.7714844 C 23.782103 6.1542217 23.754395 5.604015 23.753906 5.0683594 C 23.753276 4.5091433 23.685239 4.0489483 23.699219 3.8359375 C 23.703419 3.7712065 23.702378 3.7857276 23.705078 3.7753906 C 24.243637 3.5429422 24.843285 3.2235977 25.275391 3.0820312 C 25.416637 3.0357562 25.446147 3.039587 25.507812 3.03125 z M 18.771484 9.6328125 L 18.773438 9.6347656 C 18.774638 9.6368256 18.772238 9.638525 18.773438 9.640625 C 18.772337 9.638855 18.77258 9.6345725 18.771484 9.6328125 z M 12.927734 9.9570312 C 12.932834 10.035132 13.007948 10.078221 13.023438 10.154297 C 13.010758 10.143887 13.028639 10.159202 13.011719 10.138672 C 12.953489 10.068012 12.928054 9.9618214 12.927734 9.9570312 z M 17.019531 10.490234 C 17.034161 10.525634 17.022936 10.565334 17.041016 10.599609 C 17.031816 10.582409 17.023318 10.586959 17.017578 10.494141 C 17.017506 10.492941 17.019531 10.491434 17.019531 10.490234 z M 7.9121094 19.068359 C 7.9209394 19.070259 7.9096687 19.068373 7.9179688 19.070312 C 7.9190587 19.070563 7.9109494 19.070056 7.9121094 19.070312 A 1.0001 1.0001 0 0 0 7.9121094 19.068359 z M 12.998047 26.533203 A 1.0001 1.0001 0 0 0 13.001953 26.537109 C 13.001904 26.537044 13.001927 26.548724 13.001953 26.548828 C 13.003891 26.546525 13.008309 26.546987 12.998047 26.533203 z" />
</svg>