<?xml version="1.0" encoding="UTF-8"?>
<svg width="30px" height="42px" viewBox="0 0 30 42" version="1.1" xmlns="http://www.w3.org/2000/svg" xmlns:xlink="http://www.w3.org/1999/xlink">
    <!-- Generator: Sketch 41 (35326) - http://www.bohemiancoding.com/sketch -->
    <title>Group 2</title>
    <desc>Created with Sketch.</desc>
    <defs></defs>
    <g id="Page-1" stroke="none" stroke-width="1" fill="none" fill-rule="evenodd">
        <g id="Group-2" transform="translate(-10.000000, -4.000000)">
            <g id="baseline-place-24px">
                <g id="Group">
                    <path d="M25,4.16666667 C16.9375,4.16666667 10.4166667,10.6875 10.4166667,18.75 C10.4166667,29.6875 25,45.8333333 25,45.8333333 C25,45.8333333 39.5833333,29.6875 39.5833333,18.75 C39.5833333,10.6875 33.0625,4.16666667 25,4.16666667 Z M25,23.9583333 C22.125,23.9583333 19.7916667,21.625 19.7916667,18.75 C19.7916667,15.875 22.125,13.5416667 25,13.5416667 C27.875,13.5416667 30.2083333,15.875 30.2083333,18.75 C30.2083333,21.625 27.875,23.9583333 25,23.9583333 Z" id="Shape" fill="#FFFFFF"></path>
                    <polygon id="Shape" points="0 0 50 0 50 50 0 50"></polygon>
                </g>
            </g>
            <g id="truck" transform="translate(14.583333, 8.333333)">
                <g id="Group">
                    <polygon id="Shape" points="0 0 22.9166667 0 22.9166667 22.9166667 0 22.9166667"></polygon>
                    <path d="M19.0972222,7.63888889 L16.2326389,7.63888889 L16.2326389,3.81944444 L2.86458333,3.81944444 C1.81423611,3.81944444 0.954861111,4.67881944 0.954861111,5.72916667 L0.954861111,16.2326389 L2.86458333,16.2326389 C2.86458333,17.8177083 4.14409722,19.0972222 5.72916667,19.0972222 C7.31423611,19.0972222 8.59375,17.8177083 8.59375,16.2326389 L14.3229167,16.2326389 C14.3229167,17.8177083 15.6024306,19.0972222 17.1875,19.0972222 C18.7725694,19.0972222 20.0520833,17.8177083 20.0520833,16.2326389 L21.9618056,16.2326389 L21.9618056,11.4583333 L19.0972222,7.63888889 Z M5.72916667,17.6649306 C4.93663194,17.6649306 4.296875,17.0251736 4.296875,16.2326389 C4.296875,15.4401042 4.93663194,14.8003472 5.72916667,14.8003472 C6.52170139,14.8003472 7.16145833,15.4401042 7.16145833,16.2326389 C7.16145833,17.0251736 6.52170139,17.6649306 5.72916667,17.6649306 Z M18.6197917,9.07118056 L20.4913194,11.4583333 L16.2326389,11.4583333 L16.2326389,9.07118056 L18.6197917,9.07118056 Z M17.1875,17.6649306 C16.3949653,17.6649306 15.7552083,17.0251736 15.7552083,16.2326389 C15.7552083,15.4401042 16.3949653,14.8003472 17.1875,14.8003472 C17.9800347,14.8003472 18.6197917,15.4401042 18.6197917,16.2326389 C18.6197917,17.0251736 17.9800347,17.6649306 17.1875,17.6649306 Z" id="Shape" fill="#4975BA"></path>
                </g>
            </g>
        </g>
    </g>
</svg>